<svg viewBox="0 0 100 100" fill="none" xmlns="http://www.w3.org/2000/svg">
<path fill-rule="evenodd" clip-rule="evenodd" d="M49.0518 20.3783C49.9717 19.8669 51.0924 19.8742 52.0049 20.3988L80.4951 36.7797C81.426 37.3149 82 38.3065 82 39.3803V76.9906C81.9998 78.6473 80.6567 79.9906 79 79.9906H60.501C60.4296 77.0173 59.333 74.1824 57.4248 72.0736C55.4507 69.892 52.7733 68.6664 49.9814 68.6664C47.1897 68.6664 44.5122 69.892 42.5381 72.0736C40.63 74.1824 39.5333 77.0173 39.4619 79.9906H21C19.3433 79.9906 18.0002 78.6473 18 76.9906V39.4086C18.0001 38.3197 18.5903 37.3167 19.542 36.7875L49.0518 20.3783Z" fill="currentColor"/>
</svg>
