<svg viewBox="0 0 100 100" fill="none" xmlns="http://www.w3.org/2000/svg">
<path d="M28.0001 43.2184C27.5761 41.0743 29.1499 39.0652 31.2535 39.0652H80.6773C82.7808 39.0652 84.3546 41.0743 83.9306 43.2184L78.6908 69.7184C78.3731 71.3252 77.0139 72.4783 75.4375 72.4783H36.4933C34.9169 72.4783 33.5576 71.3252 33.2399 69.7184L28.0001 43.2184Z" fill="currentColor"/>
<path d="M73.6801 79.3913C73.6801 81.9366 71.6973 84 69.2514 84C66.8055 84 64.8228 81.9366 64.8228 79.3913C64.8228 76.846 66.8055 74.7826 69.2514 74.7826C71.6973 74.7826 73.6801 76.846 73.6801 79.3913Z" fill="currentColor"/>
<path d="M48.2152 79.3913C48.2152 81.9366 46.2324 84 43.7865 84C41.3406 84 39.3578 81.9366 39.3578 79.3913C39.3578 76.846 41.3406 74.7826 43.7865 74.7826C46.2324 74.7826 48.2152 76.846 48.2152 79.3913Z" fill="currentColor"/>
<path d="M15 33.3043C15 32.0317 15.9914 31 17.2143 31H26.0717V32.1522C26.0717 34.0612 24.5846 35.6087 22.7502 35.6087H17.2143C15.9914 35.6087 15 34.577 15 33.3043Z" fill="currentColor"/>
<path d="M26.0717 31L31.6511 40.9518L27.8258 43.2743L23.9203 36.308C22.9959 34.6591 23.5309 32.5426 25.1154 31.5806L26.0717 31Z" fill="currentColor"/>
</svg>
