<svg viewBox="0 0 100 100" fill="none" xmlns="http://www.w3.org/2000/svg">
<path fill-rule="evenodd" clip-rule="evenodd" d="M27.0179 21.6531C26.0261 21.6527 66.5183 19.6534 70.0179 22.6531C73.5179 25.6531 73.0179 26.6531 73.0179 26.6531V73.6531H31.5179C31.5179 73.6531 31.5179 29.6561 31.5179 26.6531C31.5179 23.6531 28.0179 21.6531 27.0179 21.6531ZM38.0179 57.6531H62.0179V53.6531H38.0179V57.6531ZM38.0179 43.6531V47.6531H68.0179V43.6531H38.0179ZM38.0179 37.6531H61.0179V33.6531H38.0179V37.6531Z" fill="currentColor"/>
<path d="M30.7852 29.6527C30.7852 28.7335 30.7852 28.1527 30.7852 27.1527C30.7852 26.1527 30.3774 25.3027 30.0276 24.6527C29.6778 24.0027 28.9168 23.5373 28.4597 23.1855C28.0027 22.8338 27.5129 22.6527 27.0182 22.6527L27.0182 29.6527H30.7852Z" fill="currentColor"/>
<path d="M31.5182 78.6527L31.5179 73.6531L35.0182 73.6527L31.5182 78.6527Z" fill="currentColor"/>
<path d="M73.0182 78.6527L73.0179 73.6531L71.0182 73.6527L73.0182 78.6527Z" fill="currentColor"/>
<path d="M38.0182 78.6527L34.5541 73.4027H41.4823L38.0182 78.6527Z" fill="currentColor"/>
<path d="M44.0182 78.6527L40.5541 73.4027H47.4823L44.0182 78.6527Z" fill="currentColor"/>
<path d="M50.0182 78.6527L46.5541 73.4027H53.4823L50.0182 78.6527Z" fill="currentColor"/>
<path d="M56.0182 78.6527L52.5541 73.4027H59.4823L56.0182 78.6527Z" fill="currentColor"/>
<path d="M62.0182 78.6527L58.5541 73.4027H65.4823L62.0182 78.6527Z" fill="currentColor"/>
<path d="M68.0182 78.6527L64.5541 73.4027H71.4823L68.0182 78.6527Z" fill="currentColor"/>
</svg>
