<svg viewBox="0 0 100 100" fill="none" xmlns="http://www.w3.org/2000/svg">
<path d="M58.2651 81H47.0656V74.1225C44.4182 73.6846 42.1872 73.0406 40.3727 72.1906C38.5879 71.3148 37.2196 70.4261 36.2677 69.5246L37.3832 60.1356C38.6028 61.5523 40.2388 62.7887 42.2913 63.8448C44.3438 64.8751 46.5599 65.3903 48.9396 65.3903C51.3193 65.3903 53.0297 65.1714 54.0709 64.7335C55.1417 64.2956 55.6772 63.4971 55.6772 62.3379C55.6772 61.1015 55.0674 60.0454 53.8478 59.1696C52.6579 58.2938 50.5906 57.2377 47.6457 56.0013C46.902 55.6664 46.2773 55.3831 45.7717 55.1513C45.266 54.9194 44.5669 54.546 43.6745 54.0308C42.8119 53.5156 42.0682 53.0133 41.4436 52.5239C40.8189 52.0345 40.1347 51.4034 39.3911 50.6306C38.6772 49.8579 38.0822 49.0594 37.6063 48.2351C37.1601 47.4108 36.7734 46.4449 36.4462 45.3373C36.1487 44.2039 36 43.019 36 41.7826C36 39.3355 36.4313 37.2104 37.294 35.4073C38.1864 33.6042 39.4357 32.1618 41.042 31.0799C42.678 29.9723 44.6859 29.1609 47.0656 28.6457V22H58.2651V28.298C59.5739 28.504 60.7935 28.8003 61.9239 29.1866C63.084 29.573 63.9913 29.9594 64.6457 30.3458C65.3298 30.7064 65.9396 31.1057 66.4751 31.5435C67.0402 31.9557 67.3972 32.239 67.5459 32.3936C67.6947 32.5481 67.7988 32.6769 67.8583 32.78L65.6273 40.2371C64.4672 39.0522 63.0096 38.1764 61.2546 37.6097C59.5293 37.0172 57.8784 36.721 56.3018 36.721C52.4943 36.721 50.5906 37.7514 50.5906 39.812C50.5906 40.353 50.7095 40.8424 50.9475 41.2803C51.1855 41.7182 51.5722 42.1174 52.1076 42.4781C52.643 42.8387 53.1339 43.1478 53.5801 43.4054C54.056 43.663 54.6955 43.9849 55.4987 44.3713C56.3316 44.7319 56.9563 45.0282 57.3727 45.26C61.7157 46.857 64.8985 48.7503 66.9213 50.9398C68.9738 53.1292 70 55.7952 70 58.9378C70 63.1622 69.0035 66.5623 67.0105 69.1382C65.0175 71.6883 62.1024 73.3497 58.2651 74.1225V81Z" fill="currentColor"/>
</svg>
